<svg width="273" height="118" viewBox="0 0 273 118" fill="none" xmlns="http://www.w3.org/2000/svg">
<g filter="url(#filter0_d_117_238)">
<path d="M39.452 50.7233L39.8529 50.4338C40.3578 50.1368 40.7142 49.9883 40.9221 49.9883C41.3824 49.9883 41.8799 50.4041 42.4144 51.2356C42.7411 51.7554 42.9045 52.1712 42.9045 52.483C42.9045 52.7948 42.8005 53.0547 42.5926 53.2626C42.3996 53.4705 42.1694 53.6561 41.9021 53.8195C41.6348 53.9828 41.375 54.1387 41.1225 54.2872C40.8849 54.4357 40.3875 54.6288 39.6302 54.8664C38.8728 55.1039 38.1378 55.2227 37.425 55.2227C36.7271 55.2227 36.0143 55.1336 35.2867 54.9555C34.5739 54.7624 33.8314 54.4506 33.0592 54.0199C32.3019 53.5744 31.6188 53.0399 31.01 52.4162C30.4012 51.7777 29.8963 50.9684 29.4954 49.9883C29.1093 48.9934 28.9162 47.9168 28.9162 46.7585C28.9162 45.6003 29.1093 44.5534 29.4954 43.6179C29.8814 42.6675 30.3715 41.8879 30.9655 41.2791C31.5743 40.6554 32.2648 40.1356 33.037 39.7199C34.4922 38.918 35.9549 38.517 37.425 38.517C38.1229 38.517 38.8283 38.6284 39.5411 38.8512C40.2687 39.0591 40.8181 39.2744 41.1893 39.4971L41.7239 39.809C41.9912 39.9723 42.1991 40.1059 42.3476 40.2099C42.7337 40.5217 42.9267 40.8781 42.9267 41.2791C42.9267 41.6651 42.7708 42.0735 42.459 42.5041C41.8799 43.306 41.3601 43.7069 40.8998 43.7069C40.6325 43.7069 40.2538 43.5436 39.7638 43.2169C39.1401 42.712 38.3085 42.4596 37.2691 42.4596C36.3039 42.4596 35.3535 42.7937 34.418 43.4619C33.9725 43.7886 33.6013 44.249 33.3043 44.8429C33.0073 45.4369 32.8588 46.1126 32.8588 46.8699C32.8588 47.6124 33.0073 48.2806 33.3043 48.8746C33.6013 49.4686 33.9799 49.9363 34.4402 50.2779C35.3461 50.9312 36.289 51.2579 37.2691 51.2579C37.7294 51.2579 38.16 51.1985 38.561 51.0797C38.9768 50.9609 39.2738 50.8421 39.452 50.7233ZM52.6987 38.4725C54.8964 38.4725 56.8046 39.2669 58.4232 40.8558C60.0418 42.4447 60.8511 44.4197 60.8511 46.7808C60.8511 49.127 60.0789 51.1317 58.5346 52.7948C56.9902 54.4431 55.0895 55.2673 52.8323 55.2673C50.5752 55.2673 48.6522 54.4506 47.0633 52.8171C45.4893 51.1837 44.7022 49.2384 44.7022 46.9813C44.7022 45.7488 44.925 44.5979 45.3705 43.5288C45.816 42.4447 46.4099 41.5389 47.1524 40.8113C47.8949 40.0837 48.7487 39.512 49.714 39.0962C50.6792 38.6804 51.6741 38.4725 52.6987 38.4725ZM48.6448 46.8699C48.6448 48.1915 49.068 49.2681 49.9144 50.0997C50.7757 50.9164 51.7335 51.3247 52.7878 51.3247C53.8421 51.3247 54.7925 50.9238 55.6389 50.1219C56.4853 49.3201 56.9085 48.2435 56.9085 46.8922C56.9085 45.5409 56.4779 44.4568 55.6166 43.6401C54.7702 42.8234 53.8198 42.415 52.7655 42.415C51.7112 42.415 50.7608 42.8308 49.9144 43.6624C49.068 44.4791 48.6448 45.5483 48.6448 46.8699ZM64.9582 38.6507L69.079 38.673C71.2322 38.673 73.1255 39.4526 74.7589 41.0118C76.3924 42.5561 77.2091 44.4643 77.2091 46.7362C77.2091 48.9934 76.4072 50.9312 74.8035 52.5498C73.2146 54.1684 71.2841 54.9777 69.0122 54.9777H64.936C64.0302 54.9777 63.4659 54.7921 63.2431 54.4209C63.0649 54.109 62.9758 53.6338 62.9758 52.9953V40.6108C62.9758 40.2544 62.9833 39.9946 62.9981 39.8312C63.0278 39.6679 63.1021 39.4748 63.2209 39.2521C63.4287 38.8512 64.0079 38.6507 64.9582 38.6507ZM69.079 51.0352C70.1481 51.0352 71.1134 50.6417 71.9746 49.8546C72.8359 49.0528 73.2665 48.0504 73.2665 46.8476C73.2665 45.6448 72.8433 44.6425 71.9969 43.8406C71.1653 43.0239 70.1853 42.6155 69.0567 42.6155H66.9184V51.0352H69.079ZM83.27 51.0575H90.1304C90.472 51.0575 90.7244 51.0723 90.8877 51.102C91.0659 51.1169 91.2664 51.1837 91.4892 51.3025C91.8901 51.5104 92.0906 52.0895 92.0906 53.0399C92.0906 54.0793 91.8158 54.6882 91.2664 54.8664C91.014 54.9555 90.6279 55 90.1081 55H81.2875C80.2481 55 79.6392 54.7179 79.4611 54.1536C79.372 53.916 79.3274 53.5373 79.3274 53.0176V40.6331C79.3274 39.8758 79.4685 39.3635 79.7506 39.0962C80.0328 38.814 80.5673 38.673 81.3544 38.673H90.1304C90.472 38.673 90.7244 38.6878 90.8877 38.7175C91.0659 38.7324 91.2664 38.7992 91.4892 38.918C91.8901 39.1259 92.0906 39.705 92.0906 40.6554C92.0906 41.6948 91.8158 42.3037 91.2664 42.4819C91.014 42.571 90.6279 42.6155 90.1081 42.6155H83.27V44.8652H87.6803C88.0218 44.8652 88.2742 44.8801 88.4376 44.9098C88.6158 44.9246 88.8162 44.9914 89.039 45.1102C89.4399 45.3181 89.6404 45.8973 89.6404 46.8476C89.6404 47.8871 89.3582 48.4959 88.794 48.6741C88.5415 48.7632 88.1554 48.8078 87.6357 48.8078H83.27V51.0575Z" fill="#FFF8EF"/>
</g>
<g filter="url(#filter1_d_117_238)">
<path d="M158.492 73.7233L158.893 73.4338C159.397 73.1368 159.754 72.9883 159.962 72.9883C160.422 72.9883 160.92 73.4041 161.454 74.2356C161.781 74.7554 161.944 75.1712 161.944 75.483C161.944 75.7948 161.84 76.0547 161.632 76.2626C161.439 76.4705 161.209 76.6561 160.942 76.8195C160.675 76.9828 160.415 77.1387 160.162 77.2872C159.925 77.4357 159.427 77.6288 158.67 77.8664C157.912 78.1039 157.177 78.2227 156.465 78.2227C155.767 78.2227 155.054 78.1336 154.326 77.9555C153.614 77.7624 152.871 77.4506 152.099 77.0199C151.342 76.5744 150.659 76.0399 150.05 75.4162C149.441 74.7777 148.936 73.9684 148.535 72.9883C148.149 71.9934 147.956 70.9168 147.956 69.7585C147.956 68.6003 148.149 67.5534 148.535 66.6179C148.921 65.6675 149.411 64.8879 150.005 64.2791C150.614 63.6554 151.304 63.1356 152.077 62.7199C153.532 61.918 154.995 61.517 156.465 61.517C157.163 61.517 157.868 61.6284 158.581 61.8512C159.308 62.0591 159.858 62.2744 160.229 62.4971L160.764 62.809C161.031 62.9723 161.239 63.1059 161.387 63.2099C161.773 63.5217 161.966 63.8781 161.966 64.2791C161.966 64.6651 161.81 65.0735 161.499 65.5041C160.92 66.306 160.4 66.7069 159.939 66.7069C159.672 66.7069 159.293 66.5436 158.803 66.2169C158.18 65.712 157.348 65.4596 156.309 65.4596C155.344 65.4596 154.393 65.7937 153.458 66.4619C153.012 66.7886 152.641 67.249 152.344 67.8429C152.047 68.4369 151.898 69.1126 151.898 69.8699C151.898 70.6124 152.047 71.2806 152.344 71.8746C152.641 72.4686 153.02 72.9363 153.48 73.2779C154.386 73.9312 155.329 74.2579 156.309 74.2579C156.769 74.2579 157.2 74.1985 157.601 74.0797C158.016 73.9609 158.313 73.8421 158.492 73.7233ZM174.166 62.2744C174.285 62.0516 174.486 61.8957 174.768 61.8066C175.05 61.7175 175.406 61.673 175.837 61.673C176.267 61.673 176.609 61.7101 176.861 61.7843C177.114 61.8586 177.307 61.9477 177.441 62.0516C177.574 62.1556 177.678 62.3041 177.752 62.4971C177.827 62.7496 177.864 63.1356 177.864 63.6554V76.0176C177.864 76.3591 177.849 76.619 177.819 76.7972C177.804 76.9605 177.738 77.1536 177.619 77.3763C177.411 77.7773 176.832 77.9777 175.881 77.9777C174.842 77.9777 174.233 77.703 174.055 77.1536C173.966 76.9011 173.921 76.515 173.921 75.9953V71.4736H168.019V76.0176C168.019 76.3591 168.004 76.619 167.974 76.7972C167.959 76.9605 167.892 77.1536 167.774 77.3763C167.566 77.7773 166.987 77.9777 166.036 77.9777C164.997 77.9777 164.388 77.703 164.21 77.1536C164.121 76.9011 164.076 76.515 164.076 75.9953V63.6331C164.076 63.2916 164.083 63.0391 164.098 62.8758C164.128 62.6976 164.202 62.4971 164.321 62.2744C164.529 61.8734 165.108 61.673 166.058 61.673C167.098 61.673 167.714 61.9477 167.907 62.4971C167.981 62.7496 168.019 63.1356 168.019 63.6554V68.1993H173.921V63.6331C173.921 63.2916 173.929 63.0391 173.944 62.8758C173.973 62.6976 174.047 62.4971 174.166 62.2744ZM189.741 62.8312L195.755 75.2603C196.007 75.7651 196.134 76.1438 196.134 76.3963C196.134 76.9308 195.703 77.4134 194.842 77.8441C194.337 78.0965 193.936 78.2227 193.639 78.2227C193.357 78.2227 193.119 78.1559 192.926 78.0223C192.748 77.8886 192.614 77.7476 192.525 77.5991C192.451 77.4506 192.34 77.2278 192.191 76.9308L191.033 74.5252H184.863L183.705 76.9308C183.556 77.2278 183.437 77.4431 183.348 77.5768C183.274 77.7104 183.14 77.8515 182.947 78C182.769 78.1336 182.531 78.2005 182.234 78.2005C181.952 78.2005 181.559 78.0742 181.054 77.8218C180.193 77.406 179.762 76.9308 179.762 76.3963C179.762 76.1438 179.888 75.7651 180.141 75.2603L186.155 62.809C186.318 62.4674 186.563 62.1927 186.89 61.9848C187.231 61.7769 187.588 61.673 187.959 61.673C188.761 61.673 189.355 62.0591 189.741 62.8312ZM187.937 68.1771L186.467 71.2286H189.429L187.937 68.1771ZM208.555 62.3635C208.703 62.0962 208.919 61.918 209.201 61.8289C209.483 61.7398 209.832 61.6952 210.248 61.6952C210.678 61.6952 211.02 61.7324 211.272 61.8066C211.54 61.8809 211.733 61.97 211.851 62.0739C211.985 62.1779 212.082 62.3338 212.141 62.5417C212.23 62.7793 212.275 63.1579 212.275 63.6777V76.0399C212.275 76.3963 212.26 76.6561 212.23 76.8195C212.215 76.9828 212.148 77.1759 212.03 77.3986C211.822 77.7995 211.243 78 210.292 78C209.713 78 209.312 77.9555 209.089 77.8664C208.867 77.7773 208.681 77.6362 208.532 77.4431C205.191 72.9883 202.994 70.0778 201.939 68.7116V76.0399C201.939 76.3963 201.924 76.6561 201.895 76.8195C201.88 76.9828 201.813 77.1759 201.694 77.3986C201.486 77.7995 200.907 78 199.957 78C199.036 78 198.472 77.7995 198.264 77.3986C198.145 77.1759 198.071 76.9754 198.041 76.7972C198.026 76.619 198.019 76.3591 198.019 76.0176V63.5886C198.019 63.0243 198.086 62.6159 198.22 62.3635C198.368 62.0962 198.583 61.918 198.865 61.8289C199.148 61.7398 199.511 61.6952 199.957 61.6952C200.402 61.6952 200.751 61.7398 201.004 61.8289C201.271 61.9031 201.457 61.9922 201.561 62.0962C201.62 62.1407 201.791 62.3338 202.073 62.6753C205.206 66.9371 207.3 69.7511 208.354 71.1173V63.5886C208.354 63.0243 208.421 62.6159 208.555 62.3635ZM223.227 68.1548H227.148C227.95 68.1845 228.44 68.3924 228.618 68.7785C228.766 69.0606 228.841 69.4764 228.841 70.0258V74.9262C228.841 75.4013 228.633 75.8542 228.217 76.2849C226.969 77.5768 225.098 78.2227 222.604 78.2227C220.391 78.2227 218.468 77.3912 216.835 75.728C215.201 74.05 214.385 72.0305 214.385 69.6694C214.385 67.3084 215.216 65.3408 216.879 63.7667C218.542 62.1778 220.503 61.3834 222.76 61.3834C224.512 61.3834 226.168 61.9625 227.727 63.1208C228.128 63.4178 228.328 63.7519 228.328 64.1231C228.328 64.4795 228.157 64.8953 227.816 65.3705C227.237 66.1575 226.71 66.551 226.234 66.551C225.952 66.551 225.499 66.3506 224.876 65.9496C224.252 65.5338 223.51 65.3259 222.648 65.3259C221.52 65.3259 220.517 65.7269 219.641 66.5288C218.765 67.3158 218.327 68.3552 218.327 69.6472C218.327 70.9242 218.773 72.0156 219.664 72.9215C220.554 73.8124 221.564 74.2579 222.693 74.2579C223.51 74.2579 224.245 74.1243 224.898 73.857V71.4291H223.138C222.678 71.4291 222.351 71.3697 222.158 71.2509C221.965 71.1321 221.839 70.9613 221.78 70.7386C221.72 70.501 221.69 70.1892 221.69 69.8031C221.69 69.4021 221.72 69.0829 221.78 68.8453C221.854 68.6077 221.98 68.4443 222.158 68.3552C222.426 68.2216 222.782 68.1548 223.227 68.1548ZM235.23 74.0575H242.091C242.432 74.0575 242.685 74.0723 242.848 74.102C243.026 74.1169 243.227 74.1837 243.449 74.3025C243.85 74.5104 244.051 75.0895 244.051 76.0399C244.051 77.0793 243.776 77.6882 243.227 77.8664C242.974 77.9555 242.588 78 242.068 78H233.248C232.208 78 231.6 77.7179 231.421 77.1536C231.332 76.916 231.288 76.5373 231.288 76.0176V63.6331C231.288 62.8758 231.429 62.3635 231.711 62.0962C231.993 61.814 232.528 61.673 233.315 61.673H242.091C242.432 61.673 242.685 61.6878 242.848 61.7175C243.026 61.7324 243.227 61.7992 243.449 61.918C243.85 62.1259 244.051 62.705 244.051 63.6554C244.051 64.6948 243.776 65.3037 243.227 65.4819C242.974 65.571 242.588 65.6155 242.068 65.6155H235.23V67.8652H239.641C239.982 67.8652 240.235 67.8801 240.398 67.9098C240.576 67.9246 240.777 67.9914 240.999 68.1102C241.4 68.3181 241.601 68.8973 241.601 69.8476C241.601 70.8871 241.319 71.4959 240.754 71.6741C240.502 71.7632 240.116 71.8078 239.596 71.8078H235.23V74.0575Z" fill="#FFF8EF"/>
</g>
<path d="M128.08 27.7022C128.564 26.8557 129.38 26.2814 130.529 25.9791C131.738 25.6163 133.28 25.435 135.154 25.435C137.089 25.435 138.63 25.6466 139.779 26.0698C140.928 26.4325 141.744 27.0673 142.228 27.9742C142.711 28.8206 142.984 29.6066 143.044 30.3321C143.165 31.0576 143.225 32.1156 143.225 33.5062V83.9288C143.225 86.2867 142.923 88.04 142.318 89.1887C141.774 90.2769 140.898 91.0024 139.689 91.3652C138.54 91.7279 137.089 91.9093 135.335 91.9093C133.582 91.9093 132.192 91.7582 131.164 91.4559C130.136 91.1536 129.35 90.7908 128.806 90.3676C128.262 89.9444 127.869 89.3398 127.627 88.5539C127.264 87.5261 127.083 85.9541 127.083 83.8381V72.7741H102.506C98.2743 72.7741 95.7653 71.6254 94.9793 69.328C94.677 68.3606 94.5259 67.0608 94.5259 65.4284C94.5259 63.796 94.6166 62.5868 94.7979 61.8009L102.325 31.4204C102.688 30.0298 102.99 28.9718 103.232 28.2463C103.534 27.5208 104.078 26.8255 104.864 26.1605C105.711 25.4954 106.769 25.1629 108.038 25.1629C109.308 25.1629 110.699 25.3745 112.21 25.7977C116.442 26.9464 118.558 28.8811 118.558 31.6017C118.558 32.5691 118.347 33.8387 117.923 35.4106C117.863 35.5316 117.833 35.6222 117.833 35.6827L112.301 57.8106H127.083V33.0528C127.083 31.6622 127.113 30.6344 127.174 29.9694C127.294 29.3043 127.597 28.5486 128.08 27.7022Z" fill="#FF8119"/>
<path d="M251 40L269 61L251 79" stroke="#08DEAC" stroke-width="4.8" stroke-linecap="round"/>
<path d="M22 40L4 61L22 79" stroke="#08DEAC" stroke-width="4.8" stroke-linecap="round"/>
<defs>
<filter id="filter0_d_117_238" x="25.1984" y="32.5198" width="73.0481" height="26.6686" filterUnits="userSpaceOnUse" color-interpolation-filters="sRGB">
<feFlood flood-opacity="0" result="BackgroundImageFix"/>
<feColorMatrix in="SourceAlpha" type="matrix" values="0 0 0 0 0 0 0 0 0 0 0 0 0 0 0 0 0 0 127 0" result="hardAlpha"/>
<feOffset dx="1.21898" dy="-1.01582"/>
<feGaussianBlur stdDeviation="2.46844"/>
<feComposite in2="hardAlpha" operator="out"/>
<feColorMatrix type="matrix" values="0 0 0 0 0 0 0 0 0 0 0 0 0 0 0 0 0 0 0.51 0"/>
<feBlend mode="normal" in2="BackgroundImageFix" result="effect1_dropShadow_117_238"/>
<feBlend mode="normal" in="SourceGraphic" in2="effect1_dropShadow_117_238" result="shape"/>
</filter>
<filter id="filter1_d_117_238" x="144.238" y="55.4307" width="105.969" height="26.7131" filterUnits="userSpaceOnUse" color-interpolation-filters="sRGB">
<feFlood flood-opacity="0" result="BackgroundImageFix"/>
<feColorMatrix in="SourceAlpha" type="matrix" values="0 0 0 0 0 0 0 0 0 0 0 0 0 0 0 0 0 0 127 0" result="hardAlpha"/>
<feOffset dx="1.21898" dy="-1.01582"/>
<feGaussianBlur stdDeviation="2.46844"/>
<feComposite in2="hardAlpha" operator="out"/>
<feColorMatrix type="matrix" values="0 0 0 0 0 0 0 0 0 0 0 0 0 0 0 0 0 0 0.51 0"/>
<feBlend mode="normal" in2="BackgroundImageFix" result="effect1_dropShadow_117_238"/>
<feBlend mode="normal" in="SourceGraphic" in2="effect1_dropShadow_117_238" result="shape"/>
</filter>
</defs>
</svg>
